<?xml version="1.0" encoding="utf-8"?>
<!-- Generator: Adobe Illustrator 19.2.1, SVG Export Plug-In . SVG Version: 6.00 Build 0)  -->
<svg version="1.1" id="Layer_1" xmlns="http://www.w3.org/2000/svg" xmlns:xlink="http://www.w3.org/1999/xlink" x="0px" y="0px"
	 viewBox="0 0 28 32" enable-background="new 0 0 28 32" xml:space="preserve">
<path d="M14,4C6.3,4,0,10.3,0,18s6.3,14,14,14s14-6.3,14-14S21.7,4,14,4z M14,29.2c-6.2,0-11.2-5-11.2-11.2S7.8,6.8,14,6.8
	s11.2,5,11.2,11.2S20.2,29.2,14,29.2z M27.2,9C27.7,8.1,28,7.1,28,6c0-3.3-2.7-6-6-6c-1.9,0-3.6,0.9-4.7,2.3
	C21.4,3.2,24.9,5.6,27.2,9L27.2,9L27.2,9z M10.7,2.3C9.7,0.9,7.9,0,6,0C2.7,0,0,2.7,0,6c0,1.1,0.3,2.1,0.8,3
	C3.1,5.6,6.6,3.2,10.7,2.3z"/>
<path d="M14,18v-8h-2v10h8v-2H14z"/>
</svg>
