<?xml version="1.0" encoding="utf-8"?>
<!-- Generator: Adobe Illustrator 21.0.2, SVG Export Plug-In . SVG Version: 6.00 Build 0)  -->
<svg version="1.1" id="Layer_1" xmlns="http://www.w3.org/2000/svg" xmlns:xlink="http://www.w3.org/1999/xlink" x="0px" y="0px"
	 viewBox="0 0 450 450" style="enable-background:new 0 0 450 450;" xml:space="preserve">
<style type="text/css">
	.st0{fill:#F8AF40;}
	.st1{opacity:0.13;fill:#F8AF40;}
	.st2{opacity:0.25;fill:#F8AF40;}
	.st3{opacity:0.38;fill:#F8AF40;}
	.st4{opacity:0.5;fill:#F8AF40;}
	.st5{opacity:0.63;fill:#F8AF40;}
	.st6{opacity:0.75;fill:#F8AF40;}
	.st7{opacity:0.88;fill:#F8AF40;}
</style>
<path class="st0" d="M225,400.2c-96.6,0-175.2-78.6-175.2-175.2S128.4,49.8,225,49.8S400.2,128.4,400.2,225S321.6,400.2,225,400.2z
	 M225,64.8c-88.3,0-160.2,71.9-160.2,160.2c0,88.3,71.9,160.2,160.2,160.2c88.3,0,160.2-71.9,160.2-160.2
	C385.2,136.7,313.3,64.8,225,64.8z"/>
<path class="st0" d="M140.1,433c-0.6,0-1.3-0.1-1.9-0.4c-40.4-16.9-74.8-45.1-99.5-81.5C13.4,313.8,0,270.2,0,225
	c0-45.2,13.4-88.8,38.6-126.1c24.7-36.4,59.1-64.6,99.5-81.5c2.5-1.1,5.5,0.1,6.5,2.7c1.1,2.5-0.1,5.5-2.7,6.5
	c-38.6,16.2-71.5,43.1-95.1,77.9C22.7,140.1,10,181.8,10,225c0,43.2,12.8,84.9,36.9,120.5c23.6,34.8,56.5,61.7,95.1,77.9
	c2.5,1.1,3.7,4,2.7,6.5C143.9,431.9,142,433,140.1,433z"/>
<circle class="st1" cx="142.7" cy="175.8" r="10"/>
<circle class="st2" cx="170.8" cy="196.9" r="10"/>
<circle class="st3" cx="193.8" cy="219.8" r="10"/>
<circle class="st4" cx="213.7" cy="246.2" r="10"/>
<circle class="st5" cx="227.6" cy="274.2" r="10"/>
<circle class="st6" cx="243.3" cy="254.7" r="10"/>
<circle class="st7" cx="261.8" cy="237.7" r="10"/>
<circle class="st0" cx="293.3" cy="218" r="19.5"/>
<path class="st0" d="M309.9,433c-2,0-3.8-1.2-4.6-3.1c-1.1-2.5,0.1-5.5,2.7-6.5c38.6-16.2,71.5-43.1,95.1-77.9
	C427.3,309.9,440,268.2,440,225c0-43.2-12.8-84.9-36.9-120.5c-23.6-34.8-56.5-61.7-95.1-77.9c-2.5-1.1-3.7-4-2.7-6.5
	c1.1-2.5,4-3.7,6.5-2.7c40.4,16.9,74.8,45.1,99.5,81.5C436.6,136.2,450,179.8,450,225c0,45.2-13.4,88.8-38.6,126.1
	c-24.7,36.4-59.1,64.6-99.5,81.5C311.2,432.9,310.6,433,309.9,433z"/>
</svg>
