<?xml version="1.0" encoding="utf-8"?>
<!-- Generator: Adobe Illustrator 19.2.1, SVG Export Plug-In . SVG Version: 6.00 Build 0)  -->
<svg version="1.1" id="Layer_1" xmlns="http://www.w3.org/2000/svg" xmlns:xlink="http://www.w3.org/1999/xlink" x="0px" y="0px"
	 viewBox="0 0 28 24" enable-background="new 0 0 28 24" xml:space="preserve">
<path d="M17.4,0.6l10,10c0.8,0.8,0.8,2,0,2.8l-10,10c-0.8,0.8-2,0.8-2.8,0c-0.8-0.8-0.8-2,0-2.8l6.6-6.6L2,14c-1.1,0-2-0.9-2-2
	s0.9-2,2-2l19.2,0l-6.6-6.6C14.2,3,14,2.5,14,2c0-0.5,0.2-1,0.6-1.4C15.4-0.2,16.6-0.2,17.4,0.6z"/>
</svg>
