<?xml version="1.0" encoding="utf-8"?>
<!-- Generator: Adobe Illustrator 19.2.1, SVG Export Plug-In . SVG Version: 6.00 Build 0)  -->
<svg version="1.1" id="Layer_1" xmlns="http://www.w3.org/2000/svg" xmlns:xlink="http://www.w3.org/1999/xlink" x="0px" y="0px"
	 viewBox="0 0 32 26" enable-background="new 0 0 32 26" xml:space="preserve">
<path d="M9.5,15c0,3.6,2.9,6.5,6.5,6.5s6.5-2.9,6.5-6.5S19.6,8.5,16,8.5S9.5,11.4,9.5,15z M30,4h-7c-0.5-2-1-4-3-4h-8
	c-2,0-2.5,2-3,4H2C0.9,4,0,4.9,0,6v18c0,1.1,0.9,2,2,2h28c1.1,0,2-0.9,2-2V6C32,4.9,31.1,4,30,4z M16,23.9c-4.9,0-8.9-4-8.9-8.9
	s4-8.9,8.9-8.9s8.9,4,8.9,8.9S20.9,23.9,16,23.9z M30,10h-4V8h4V10z"/>
</svg>
