<?xml version="1.0" encoding="utf-8"?>
<!-- Generator: Adobe Illustrator 19.2.1, SVG Export Plug-In . SVG Version: 6.00 Build 0)  -->
<svg version="1.1" id="Layer_1" xmlns="http://www.w3.org/2000/svg" xmlns:xlink="http://www.w3.org/1999/xlink" x="0px" y="0px"
	 viewBox="0 0 32 25.3" enable-background="new 0 0 32 25.3" xml:space="preserve">
<path d="M27.8,7.3c-0.1-4-3.4-7.3-7.4-7.3c-2.4,0-4.5,1.1-5.8,2.8c-0.8-1-2-1.6-3.3-1.6C9,1.2,7.1,3.1,7.1,5.4c0,0.2,0,0.4,0,0.6
	C6.8,5.9,6.4,5.9,6.1,5.9C2.7,5.9,0,8.6,0,11.9S2.7,18,6.1,18h2.9l7.1,7.3l7.1-7.3h3.5c3,0,5.4-2.4,5.4-5.5C32,10,30.2,7.8,27.8,7.3
	L27.8,7.3z M16,22l-6-6h4v-6h4v6h4L16,22z"/>
</svg>
