<?xml version="1.0" encoding="utf-8"?>
<!-- Generator: Adobe Illustrator 19.2.1, SVG Export Plug-In . SVG Version: 6.00 Build 0)  -->
<svg version="1.1" id="Layer_1" xmlns="http://www.w3.org/2000/svg" xmlns:xlink="http://www.w3.org/1999/xlink" x="0px" y="0px"
	 viewBox="0 0 32 32" enable-background="new 0 0 32 32" xml:space="preserve">
<path d="M9,18H7v14h2c0.6,0,1-0.5,1-1V19C10,18.5,9.6,18,9,18z"/>
<path d="M23,18c-0.5,0-1,0.5-1,1v12c0,0.5,0.5,1,1,1h2V18H23z"/>
<path d="M32,16c0-8.8-7.2-16-16-16S0,7.2,0,16c0,1.9,0.3,3.8,1,5.5c-0.6,1-1,2.2-1,3.5c0,3.5,2.6,6.4,6,6.9V18.1
	c-1,0.1-1.9,0.5-2.7,1C3.1,18.2,3,17.4,3,16.5c0-7.2,5.8-13,13-13s13,5.8,13,13c0,0.9-0.1,1.7-0.3,2.6c-0.8-0.5-1.7-0.9-2.7-1v13.9
	c3.4-0.5,6-3.4,6-6.9c0-1.3-0.3-2.5-1-3.5C31.7,19.8,32,17.9,32,16L32,16z"/>
</svg>
