<?xml version="1.0" encoding="utf-8"?>
<!-- Generator: Adobe Illustrator 19.2.1, SVG Export Plug-In . SVG Version: 6.00 Build 0)  -->
<svg version="1.1" id="Layer_1" xmlns="http://www.w3.org/2000/svg" xmlns:xlink="http://www.w3.org/1999/xlink" x="0px" y="0px"
	 viewBox="0 0 32 28" enable-background="new 0 0 32 28" xml:space="preserve">
<path d="M30,2C30,2,30,2,30,2l0,24c0,0,0,0,0,0H2c0,0,0,0,0,0V2c0,0,0,0,0,0C2,2,30,2,30,2z M30,0H2C0.9,0,0,0.9,0,2v24
	c0,1.1,0.9,2,2,2h28c1.1,0,2-0.9,2-2V2C32,0.9,31.1,0,30,0L30,0z"/>
<path d="M26,7c0,1.7-1.3,3-3,3s-3-1.3-3-3s1.3-3,3-3S26,5.3,26,7z"/>
<path d="M28,24H4v-4l7-12l8,10h2l7-6V24z"/>
</svg>
