<?xml version="1.0" encoding="utf-8"?>
<!-- Generator: Adobe Illustrator 19.2.1, SVG Export Plug-In . SVG Version: 6.00 Build 0)  -->
<svg version="1.1" id="Layer_1" xmlns="http://www.w3.org/2000/svg" xmlns:xlink="http://www.w3.org/1999/xlink" x="0px" y="0px"
	 viewBox="0 0 32 32" enable-background="new 0 0 32 32" xml:space="preserve">
<path d="M27.8,5.2C24.9,2,20.7,0,16,0C7.2,0,0,7.2,0,16h3C3,8.8,8.8,3,16,3c3.8,0,7.3,1.7,9.7,4.3L21,12h11V1L27.8,5.2L27.8,5.2z"/>
<path d="M29,16c0,7.2-5.8,13-13,13c-3.8,0-7.3-1.7-9.7-4.3L11,20H0v11l4.2-4.2C7.1,30,11.3,32,16,32c8.8,0,16-7.2,16-16H29z"/>
</svg>
