<?xml version="1.0" encoding="utf-8"?>
<!-- Generator: Adobe Illustrator 19.2.1, SVG Export Plug-In . SVG Version: 6.00 Build 0)  -->
<svg version="1.1" id="Layer_1" xmlns="http://www.w3.org/2000/svg" xmlns:xlink="http://www.w3.org/1999/xlink" x="0px" y="0px"
	 viewBox="0 0 32 28" enable-background="new 0 0 32 28" xml:space="preserve">
<path d="M8,0h16v4H8V0z"/>
<path d="M30,6H2C0.9,6,0,6.9,0,8v10c0,1.1,0.9,2,2,2h6v8h16v-8h6c1.1,0,2-0.9,2-2V8C32,6.9,31.1,6,30,6z M4,12c-1.1,0-2-0.9-2-2
	s0.9-2,2-2s2,0.9,2,2S5.1,12,4,12z M22,26H10V16h12V26z"/>
</svg>
