<?xml version="1.0" encoding="utf-8"?>
<!-- Generator: Adobe Illustrator 19.2.1, SVG Export Plug-In . SVG Version: 6.00 Build 0)  -->
<svg version="1.1" id="Layer_1" xmlns="http://www.w3.org/2000/svg" xmlns:xlink="http://www.w3.org/1999/xlink" x="0px" y="0px"
	 viewBox="0 0 32 26" enable-background="new 0 0 32 26" xml:space="preserve">
<path d="M27.9,10.1C28,9.7,28,9.4,28,9c0-2.8-2.2-5-5-5c-0.4,0-0.9,0.1-1.3,0.2C20.9,1.7,18.7,0,16,0c-2.7,0-5,1.8-5.8,4.3
	C9.5,4.1,8.8,4,8,4c-4.4,0-8,3.6-8,8s3.6,8,8,8h4v6h8v-6h7c2.8,0,5-2.2,5-5C32,12.5,30.2,10.5,27.9,10.1z M18,18v6h-4v-6H9l7-7l7,7
	H18z"/>
</svg>
