<svg viewBox="0 0 100 100" xmlns="http://www.w3.org/2000/svg"><symbol viewBox="0 0 28 32" id="svg-alarm"><title>alarm</title> <path d="M14,4C6.3,4,0,10.3,0,18s6.3,14,14,14s14-6.3,14-14S21.7,4,14,4z M14,29.2c-6.2,0-11.2-5-11.2-11.2S7.8,6.8,14,6.8
	s11.2,5,11.2,11.2S20.2,29.2,14,29.2z M27.2,9C27.7,8.1,28,7.1,28,6c0-3.3-2.7-6-6-6c-1.9,0-3.6,0.9-4.7,2.3
	C21.4,3.2,24.9,5.6,27.2,9L27.2,9L27.2,9z M10.7,2.3C9.7,0.9,7.9,0,6,0C2.7,0,0,2.7,0,6c0,1.1,0.3,2.1,0.8,3
	C3.1,5.6,6.6,3.2,10.7,2.3z"/> <path d="M14,18v-8h-2v10h8v-2H14z"/> </symbol><symbol viewBox="0 0 450 450" id="svg-animation-icon"><title>animation-icon</title> <style type="text/css"> .st0{fill:#F8AF40;} .st1{opacity:0.13;fill:#F8AF40;} .st2{opacity:0.25;fill:#F8AF40;} .st3{opacity:0.38;fill:#F8AF40;} .st4{opacity:0.5;fill:#F8AF40;} .st5{opacity:0.63;fill:#F8AF40;} .st6{opacity:0.75;fill:#F8AF40;} .st7{opacity:0.88;fill:#F8AF40;} </style> <path class="st0" d="M225,400.2c-96.6,0-175.2-78.6-175.2-175.2S128.4,49.8,225,49.8S400.2,128.4,400.2,225S321.6,400.2,225,400.2z
	 M225,64.8c-88.3,0-160.2,71.9-160.2,160.2c0,88.3,71.9,160.2,160.2,160.2c88.3,0,160.2-71.9,160.2-160.2
	C385.2,136.7,313.3,64.8,225,64.8z"/> <path class="st0" d="M140.1,433c-0.6,0-1.3-0.1-1.9-0.4c-40.4-16.9-74.8-45.1-99.5-81.5C13.4,313.8,0,270.2,0,225
	c0-45.2,13.4-88.8,38.6-126.1c24.7-36.4,59.1-64.6,99.5-81.5c2.5-1.1,5.5,0.1,6.5,2.7c1.1,2.5-0.1,5.5-2.7,6.5
	c-38.6,16.2-71.5,43.1-95.1,77.9C22.7,140.1,10,181.8,10,225c0,43.2,12.8,84.9,36.9,120.5c23.6,34.8,56.5,61.7,95.1,77.9
	c2.5,1.1,3.7,4,2.7,6.5C143.9,431.9,142,433,140.1,433z"/> <circle class="st1" cx="142.7" cy="175.8" r="10"/> <circle class="st2" cx="170.8" cy="196.9" r="10"/> <circle class="st3" cx="193.8" cy="219.8" r="10"/> <circle class="st4" cx="213.7" cy="246.2" r="10"/> <circle class="st5" cx="227.6" cy="274.2" r="10"/> <circle class="st6" cx="243.3" cy="254.7" r="10"/> <circle class="st7" cx="261.8" cy="237.7" r="10"/> <circle class="st0" cx="293.3" cy="218" r="19.5"/> <path class="st0" d="M309.9,433c-2,0-3.8-1.2-4.6-3.1c-1.1-2.5,0.1-5.5,2.7-6.5c38.6-16.2,71.5-43.1,95.1-77.9
	C427.3,309.9,440,268.2,440,225c0-43.2-12.8-84.9-36.9-120.5c-23.6-34.8-56.5-61.7-95.1-77.9c-2.5-1.1-3.7-4-2.7-6.5
	c1.1-2.5,4-3.7,6.5-2.7c40.4,16.9,74.8,45.1,99.5,81.5C436.6,136.2,450,179.8,450,225c0,45.2-13.4,88.8-38.6,126.1
	c-24.7,36.4-59.1,64.6-99.5,81.5C311.2,432.9,310.6,433,309.9,433z"/> </symbol><symbol viewBox="0 0 28 24" id="svg-arrow-left"><title>arrow-left</title> <path d="M10.6,23.4l-10-10c-0.8-0.8-0.8-2,0-2.8l10-10c0.8-0.8,2-0.8,2.8,0c0.8,0.8,0.8,2,0,2.8L6.8,10H26c1.1,0,2,0.9,2,2
	s-0.9,2-2,2H6.8l6.6,6.6C13.8,21,14,21.5,14,22s-0.2,1-0.6,1.4C12.6,24.2,11.4,24.2,10.6,23.4z"/> </symbol><symbol viewBox="0 0 28 24" id="svg-arrow-right"><title>arrow-right</title> <path d="M17.4,0.6l10,10c0.8,0.8,0.8,2,0,2.8l-10,10c-0.8,0.8-2,0.8-2.8,0c-0.8-0.8-0.8-2,0-2.8l6.6-6.6L2,14c-1.1,0-2-0.9-2-2
	s0.9-2,2-2l19.2,0l-6.6-6.6C14.2,3,14,2.5,14,2c0-0.5,0.2-1,0.6-1.4C15.4-0.2,16.6-0.2,17.4,0.6z"/> </symbol><symbol viewBox="0 0 32 26" id="svg-camera"><title>camera</title> <path d="M9.5,15c0,3.6,2.9,6.5,6.5,6.5s6.5-2.9,6.5-6.5S19.6,8.5,16,8.5S9.5,11.4,9.5,15z M30,4h-7c-0.5-2-1-4-3-4h-8
	c-2,0-2.5,2-3,4H2C0.9,4,0,4.9,0,6v18c0,1.1,0.9,2,2,2h28c1.1,0,2-0.9,2-2V6C32,4.9,31.1,4,30,4z M16,23.9c-4.9,0-8.9-4-8.9-8.9
	s4-8.9,8.9-8.9s8.9,4,8.9,8.9S20.9,23.9,16,23.9z M30,10h-4V8h4V10z"/> </symbol><symbol viewBox="0 0 32 32" id="svg-circle-down"><title>circle-down</title> <path d="M32,16c0-8.8-7.2-16-16-16S0,7.2,0,16s7.2,16,16,16S32,24.8,32,16z M3,16C3,8.8,8.8,3,16,3s13,5.8,13,13s-5.8,13-13,13
	S3,23.2,3,16z"/> <path d="M9.9,11.1l-2.8,2.8l8.9,8.9l8.9-8.9l-2.8-2.8L16,17.2L9.9,11.1z"/> </symbol><symbol viewBox="0 0 32 32" id="svg-circle-left"><title>circle-left</title> <path d="M16,32c8.8,0,16-7.2,16-16S24.8,0,16,0S0,7.2,0,16S7.2,32,16,32z M16,3c7.2,0,13,5.8,13,13s-5.8,13-13,13S3,23.2,3,16
	S8.8,3,16,3z"/> <path d="M20.9,9.9l-2.8-2.8L9.2,16l8.9,8.9l2.8-2.8L14.8,16L20.9,9.9z"/> </symbol><symbol viewBox="0 0 32 32" id="svg-circle-right"><title>circle-right</title> <path d="M16,0C7.2,0,0,7.2,0,16s7.2,16,16,16s16-7.2,16-16S24.8,0,16,0z M16,29C8.8,29,3,23.2,3,16S8.8,3,16,3s13,5.8,13,13
	S23.2,29,16,29z"/> <path d="M11.1,22.1l2.8,2.8l8.9-8.9l-8.9-8.9l-2.8,2.8l6.1,6.1L11.1,22.1z"/> </symbol><symbol viewBox="0 0 32 32" id="svg-circle-up"><title>circle-up</title> <path d="M0,16c0,8.8,7.2,16,16,16s16-7.2,16-16S24.8,0,16,0S0,7.2,0,16z M29,16c0,7.2-5.8,13-13,13S3,23.2,3,16S8.8,3,16,3
	S29,8.8,29,16z"/> <path d="M22.1,20.9l2.8-2.8L16,9.2l-8.9,8.9l2.8,2.8l6.1-6.1L22.1,20.9z"/> </symbol><symbol viewBox="0 0 32 25.3" id="svg-download"><title>download</title> <path d="M27.8,7.3c-0.1-4-3.4-7.3-7.4-7.3c-2.4,0-4.5,1.1-5.8,2.8c-0.8-1-2-1.6-3.3-1.6C9,1.2,7.1,3.1,7.1,5.4c0,0.2,0,0.4,0,0.6
	C6.8,5.9,6.4,5.9,6.1,5.9C2.7,5.9,0,8.6,0,11.9S2.7,18,6.1,18h2.9l7.1,7.3l7.1-7.3h3.5c3,0,5.4-2.4,5.4-5.5C32,10,30.2,7.8,27.8,7.3
	L27.8,7.3z M16,22l-6-6h4v-6h4v6h4L16,22z"/> </symbol><symbol viewBox="0 0 32 32" id="svg-headphones"><title>headphones</title> <path d="M9,18H7v14h2c0.6,0,1-0.5,1-1V19C10,18.5,9.6,18,9,18z"/> <path d="M23,18c-0.5,0-1,0.5-1,1v12c0,0.5,0.5,1,1,1h2V18H23z"/> <path d="M32,16c0-8.8-7.2-16-16-16S0,7.2,0,16c0,1.9,0.3,3.8,1,5.5c-0.6,1-1,2.2-1,3.5c0,3.5,2.6,6.4,6,6.9V18.1
	c-1,0.1-1.9,0.5-2.7,1C3.1,18.2,3,17.4,3,16.5c0-7.2,5.8-13,13-13s13,5.8,13,13c0,0.9-0.1,1.7-0.3,2.6c-0.8-0.5-1.7-0.9-2.7-1v13.9
	c3.4-0.5,6-3.4,6-6.9c0-1.3-0.3-2.5-1-3.5C31.7,19.8,32,17.9,32,16L32,16z"/> </symbol><symbol viewBox="0 0 32 29" id="svg-home"><title>home</title> <path d="M32,17.5L16,5.1L0,17.5v-5.1L16,0l16,12.4V17.5z M28,17v12h-8v-8h-8v8H4V17l12-9L28,17z"/> </symbol><symbol viewBox="0 0 32 28" id="svg-image"><title>image</title> <path d="M30,2C30,2,30,2,30,2l0,24c0,0,0,0,0,0H2c0,0,0,0,0,0V2c0,0,0,0,0,0C2,2,30,2,30,2z M30,0H2C0.9,0,0,0.9,0,2v24
	c0,1.1,0.9,2,2,2h28c1.1,0,2-0.9,2-2V2C32,0.9,31.1,0,30,0L30,0z"/> <path d="M26,7c0,1.7-1.3,3-3,3s-3-1.3-3-3s1.3-3,3-3S26,5.3,26,7z"/> <path d="M28,24H4v-4l7-12l8,10h2l7-6V24z"/> </symbol><symbol viewBox="0 0 32 32" id="svg-loop"><title>loop</title> <path d="M27.8,5.2C24.9,2,20.7,0,16,0C7.2,0,0,7.2,0,16h3C3,8.8,8.8,3,16,3c3.8,0,7.3,1.7,9.7,4.3L21,12h11V1L27.8,5.2L27.8,5.2z"/> <path d="M29,16c0,7.2-5.8,13-13,13c-3.8,0-7.3-1.7-9.7-4.3L11,20H0v11l4.2-4.2C7.1,30,11.3,32,16,32c8.8,0,16-7.2,16-16H29z"/> </symbol><symbol viewBox="0 0 32 32" id="svg-pencil"><title>pencil</title> <path d="M27,0c2.8,0,5,2.2,5,5c0,1.1-0.4,2.2-1,3l-2,2l-7-7l2-2C24.8,0.4,25.9,0,27,0z M2,23l-2,9l9-2l18.5-18.5l-7-7L2,23z
	 M22.4,11.4l-14,14l-1.7-1.7l14-14L22.4,11.4z"/> </symbol><symbol viewBox="0 0 32 28" id="svg-printer"><title>printer</title> <path d="M8,0h16v4H8V0z"/> <path d="M30,6H2C0.9,6,0,6.9,0,8v10c0,1.1,0.9,2,2,2h6v8h16v-8h6c1.1,0,2-0.9,2-2V8C32,6.9,31.1,6,30,6z M4,12c-1.1,0-2-0.9-2-2
	s0.9-2,2-2s2,0.9,2,2S5.1,12,4,12z M22,26H10V16h12V26z"/> </symbol><symbol viewBox="0 0 32 28" id="svg-stack"><title>stack</title> <path d="M32,8L16,0L0,8l16,8L32,8z M16,2.7L26.7,8L16,13.3L5.3,8C5.3,8,16,2.7,16,2.7z M28.8,12.4L32,14l-16,8L0,14l3.2-1.6L16,18.8
	L28.8,12.4z M28.8,18.4L32,20l-16,8L0,20l3.2-1.6L16,24.8L28.8,18.4z"/> </symbol><symbol viewBox="0 0 32 30.4" id="svg-star"><title>star</title> <path d="M32,11.6L20.9,10L16,0l-4.9,10L0,11.6l8,7.8l-1.9,11l9.9-5.2l9.9,5.2l-1.9-11C24,19.4,32,11.6,32,11.6z M16,22.8l-7,3.7
	l1.3-7.8l-5.7-5.5l7.8-1.1L16,4.9l3.5,7.1l7.8,1.1l-5.6,5.5l1.3,7.8L16,22.8L16,22.8z"/> </symbol><symbol viewBox="0 0 32 26" id="svg-upload"><title>upload</title> <path d="M27.9,10.1C28,9.7,28,9.4,28,9c0-2.8-2.2-5-5-5c-0.4,0-0.9,0.1-1.3,0.2C20.9,1.7,18.7,0,16,0c-2.7,0-5,1.8-5.8,4.3
	C9.5,4.1,8.8,4,8,4c-4.4,0-8,3.6-8,8s3.6,8,8,8h4v6h8v-6h7c2.8,0,5-2.2,5-5C32,12.5,30.2,10.5,27.9,10.1z M18,18v6h-4v-6H9l7-7l7,7
	H18z"/> </symbol></svg>